/* XPM */
static char *close_pressed[] = {
/* columns rows colors chars-per-pixel */
"30 30 23 1 ",
"  c #161616",
". c gray26",
"X c #434343",
"o c gray48",
"O c gray50",
"+ c #C0C0C0",
"@ c gray76",
"# c gray77",
"$ c #C5C5C5",
"% c #C6C6C6",
"& c #C8C8C8",
"* c gray79",
"= c gray80",
"- c #CDCDCD",
"; c #D0D0D0",
": c gray82",
"> c #D2D2D2",
", c gray84",
"< c #D7D7D7",
"1 c gray85",
"2 c #DADADA",
"3 c #DFDFDF",
"4 c gray88",
/* pixels */
"44444444441;&#@@#&;14444444444",
"44444443:#@@@@@@@@@@#>34444444",
"444444,$@@@@@@@@@@@@@@$,444444",
"44444:@@@@@@@@@@@@@@@@@@;44444",
"4444=@@@@@@@@@@@@@@@@@@@@-4444",
"444;@@@@@@@@@@@@@@@@@@@@@@:444",
"44,@@@@@@@@@@@@@@@@@@@@@@@@,44",
"43$@@@@@@@@@@@@@@@@@@@@@@@@%34",
"4:@@@@@@@@@@@@@@@@@@@@@@@@@@>4",
"4#@@@@@@@@@@@@@@@@@@@@@@@@@@$4",
"1@@@@@@@@@@+@@@@@@+@@@@@@@@@@1",
";@@@@@@@@@+.O@@@@O.+@@@@@@@@@;",
"&@@@@@@@@@@O o@@O o@@@@@@@@@@*",
"#@@@@@@@@@@@O oO o@@@@@@@@@@@#",
"@@@@@@@@@@@@@O  O@@@@@@@@@@@@@",
"@@@@@@@@@@@@@O  O@@@@@@@@@@@@@",
"#@@@@@@@@@@@O oO o@@@@@@@@@@@#",
"&@@@@@@@@@@O o@@O o@@@@@@@@@@*",
";@@@@@@@@@+XO@@@@O.+@@@@@@@@@;",
"1@@@@@@@@@@+@@@@@@+@@@@@@@@@@2",
"4#@@@@@@@@@@@@@@@@@@@@@@@@@@$4",
"4>@@@@@@@@@@@@@@@@@@@@@@@@@@>4",
"43%@@@@@@@@@@@@@@@@@@@@@@@@%34",
"44,@@@@@@@@@@@@@@@@@@@@@@@@<44",
"444:@@@@@@@@@@@@@@@@@@@@@@;444",
"4444-@@@@@@@@@@@@@@@@@@@@-4444",
"44444:@@@@@@@@@@@@@@@@@@;44444",
"444444,%@@@@@@@@@@@@@@%<444444",
"44444443>$@@@@@@@@@@$>34444444",
"44444444441;*#@@#*;14444444444"
};
