/* XPM */
static char *close_inactive[] = {
/* columns rows colors chars-per-pixel */
"34 26 19 1 ",
"  c #676767",
". c #868686",
"X c gray53",
"o c #B1B1B1",
"O c gray70",
"+ c #B4B4B4",
"@ c #E4E4E4",
"# c gray90",
"$ c #E6E6E6",
"% c #E7E7E7",
"& c gray91",
"* c #E9E9E9",
"= c #ECECEC",
"- c gray93",
"; c #EEEEEE",
": c gray94",
"> c #F1F1F1",
", c gray95",
"< c #F3F3F3",
/* pixels */
"<<<<<<<<<<<<>-*%$$%*-:<<<<<<<<<<<<",
"<<<<<<<<<<:&##########*:<<<<<<<<<<",
"<<<<<<<<<=##############=<<<<<<<<<",
"<<<<<<<,&################*,<<<<<<<",
"<<<<<<<*##################*<<<<<<<",
"<<<<<<=####################=<<<<<<",
"<<<<<:######################:<<<<<",
"<<<<<*######################*<<<<<",
"<<<<:########@######@########:<<<<",
"<<<<-#######@.O####O.@#######;<<<<",
"<<<<*########+ o##+ o########*<<<<",
"<<<<&#########+ o+ o#########%<<<<",
"<<<<$##########O  O##########$<<<<",
"<<<<###########O  O###########<<<<",
"<<<<&#########+ o+ o#########%<<<<",
"<<<<*########+ o##+ o########*<<<<",
"<<<<-#######@XO####O.@#######;<<<<",
"<<<<:########@######@########:<<<<",
"<<<<<*######################*<<<<<",
"<<<<<:######################:<<<<<",
"<<<<<<=####################=<<<<<<",
"<<<<<<<*##################*<<<<<<<",
"<<<<<<<,*################*,<<<<<<<",
"<<<<<<<<<=##############=<<<<<<<<<",
"<<<<<<<<<<>*##########*:<<<<<<<<<<",
"<<<<<<<<<<<<:;*%$$%*;:<<<<<<<<<<<<"
};
