/* XPM */
static char *hide_inactive[] = {
/* columns rows colors chars-per-pixel */
"34 26 13 1 ",
"  c #656565",
". c gray90",
"X c #E6E6E6",
"o c #E7E7E7",
"O c gray91",
"+ c #E9E9E9",
"@ c #ECECEC",
"# c gray93",
"$ c #EEEEEE",
"% c gray94",
"& c #F1F1F1",
"* c gray95",
"= c #F3F3F3",
/* pixels */
"============&#+oXXo+#%============",
"==========%O..........+%==========",
"=========@..............@=========",
"=======*O................+*=======",
"=======+..................+=======",
"======@....................@======",
"=====%......................%=====",
"=====+......................+=====",
"====%........................%====",
"====#........................$====",
"====+........................+====",
"====O........................o====",
"====X........................X====",
"====..........................====",
"====O........................o====",
"====+........        ........+====",
"====#........................$====",
"====%........................%====",
"=====+......................+=====",
"=====%......................%=====",
"======@....................@======",
"=======+..................+=======",
"=======*+................+*=======",
"=========@..............@=========",
"==========&+..........+%==========",
"============%$+oXXo+$%============"
};
