/* XPM */
static char *maximize_pressed[] = {
/* columns rows colors chars-per-pixel */
"34 26 17 1 ",
"  c gray16",
". c gray79",
"X c gray80",
"o c gray81",
"O c LightGray",
"+ c gray83",
"@ c #D5D5D5",
"# c gainsboro",
"$ c #E1E1E1",
"% c gray89",
"& c #EEEEEE",
"* c #EFEFEF",
"= c #F1F1F1",
"- c gray95",
"; c gray96",
": c #F8F8F8",
"> c #F9F9F9",
/* pixels */
">>>>>>>>>>>>=$+oXXo+$=>>>>>>>>>>>>",
">>>>>>>>>>&O..........+&>>>>>>>>>>",
">>>>>>>>:#..............#:>>>>>>>>",
">>>>>>>;O................+;>>>>>>>",
">>>>>>:+..................+:>>>>>>",
">>>>>>#....................#>>>>>>",
">>>>>*......................&>>>>>",
">>>>>+......................+>>>>>",
">>>>=........................=>>>>",
">>>>$........        ........%>>>>",
">>>>+........ ...... ........+>>>>",
">>>>o........ ...... ........o>>>>",
">>>>X........ ...... ........X>>>>",
">>>>X........ ...... ........X>>>>",
">>>>o........ ...... ........o>>>>",
">>>>+........ ...... ........+>>>>",
">>>>$........        ........%>>>>",
">>>>-........................=>>>>",
">>>>>+......................+>>>>>",
">>>>>*......................*>>>>>",
">>>>>>#....................#>>>>>>",
">>>>>>>@..................+:>>>>>>",
">>>>>>>;+................+;>>>>>>>",
">>>>>>>>:#..............#:>>>>>>>>",
">>>>>>>>>>=@..........+*>>>>>>>>>>",
">>>>>>>>>>>>=%+oXXo+%->>>>>>>>>>>>"
};
