/* XPM */
static char *maximize_pressed[] = {
/* columns rows colors chars-per-pixel */
"30 30 18 1 ",
"  c gray8",
". c gray76",
"X c gray77",
"o c #C5C5C5",
"O c #C6C6C6",
"+ c #C8C8C8",
"@ c gray79",
"# c gray80",
"$ c #CDCDCD",
"% c #D0D0D0",
"& c gray82",
"* c #D2D2D2",
"= c gray84",
"- c #D7D7D7",
"; c gray85",
": c #DADADA",
"> c #DFDFDF",
", c gray88",
/* pixels */
",,,,,,,,,,;%+X..X+%;,,,,,,,,,,",
",,,,,,,>&X..........X*>,,,,,,,",
",,,,,,=o..............o=,,,,,,",
",,,,,&..................%,,,,,",
",,,,#....................$,,,,",
",,,%......................&,,,",
",,=........................=,,",
",>o........................O>,",
",&..........................*,",
",X..........................o,",
";............................;",
"%..........        ..........%",
"+.......... ...... ..........@",
"X.......... ...... ..........X",
"........... ...... ...........",
"........... ...... ...........",
"X.......... ...... ..........X",
"+.......... ...... ..........@",
"%..........        ..........%",
";............................:",
",X..........................o,",
",*..........................*,",
",>O........................O>,",
",,=........................-,,",
",,,&......................%,,,",
",,,,$....................$,,,,",
",,,,,&..................%,,,,,",
",,,,,,=O..............O-,,,,,,",
",,,,,,,>*o..........o*>,,,,,,,",
",,,,,,,,,,;%@X..X@%;,,,,,,,,,,"
};
