/* XPM */
static char *top_left_active[] = {
/* columns rows colors chars-per-pixel */
"8 38 3 1 ",
"  c None",
". c #F9F9F9",
"X c gray98",
/* pixels */
"     X..",
"   X....",
"  X.....",
" X......",
" .......",
"X.......",
"........",
"........",
"........",
"........",
"........",
"........",
"........",
"........",
"........",
"........",
"........",
"........",
"........",
"........",
"........",
"........",
"........",
"........",
"........",
"........",
"........",
"........",
"........",
"........",
"........",
"........",
"........",
"........",
"........",
"........",
"........",
"........"
};
