/* XPM */
static char *close_prelight[] = {
/* columns rows colors chars-per-pixel */
"34 34 22 1 ",
"  c gray18",
". c gray19",
"X c #323232",
"o c gray20",
"O c #343434",
"+ c #353535",
"@ c gray21",
"# c #373737",
"$ c gray22",
"% c #3A3A3A",
"& c gray23",
"* c #3C3C3C",
"= c gray24",
"- c gray25",
"; c #414141",
": c gray26",
"> c #848484",
", c gray52",
"< c #898989",
"1 c #C1C1C1",
"2 c gray76",
"3 c #EEEEEE",
/* pixels */
"           .+%=-;;-=%+.           ",
"         o*;;;;;;;;;;;;*o         ",
"       .*;;;;;;;;;;;;;;;;*.       ",
"      O;;;;;;;;;;;;;;;;;;;;+      ",
"     #;;;;;;;;;;;;;;;;;;;;;;$     ",
"    $;;;;;;;;;;;;;;;;;;;;;;;;#    ",
"   O;;;;;;;;;;;;;;;;;;;;;;;;;;+   ",
"  .;;;;;;;;;;;;;;;;;;;;;;;;;;;;.  ",
"  *;;;;;;;;;;;;;;;;;;;;;;;;;;;;*  ",
" X;;;;;;;;;;;;;;;;;;;;;;;;;;;;;;o ",
" *;;;;;;;;;;;;;;;;;;;;;;;;;;;;;;* ",
".;;;;;;;;;;;;;;;;;;;;;;;;;;;;;;;;.",
"+;;;;;;;;;;;;:;;;;;;:;;;;;;;;;;;;+",
"%;;;;;;;;;;;:2,;;;;,2:;;;;;;;;;;;%",
"=;;;;;;;;;;;;>3<;;>3<;;;;;;;;;;;;=",
"-;;;;;;;;;;;;;>3<>3<;;;;;;;;;;;;;-",
";;;;;;;;;;;;;;;,33,;;;;;;;;;;;;;;;",
";;;;;;;;;;;;;;;,33,;;;;;;;;;;;;;;;",
"-;;;;;;;;;;;;;>3<>3<;;;;;;;;;;;;;-",
"=;;;;;;;;;;;;>3<;;>3<;;;;;;;;;;;;=",
"%;;;;;;;;;;;:1,;;;;,2:;;;;;;;;;;;%",
"+;;;;;;;;;;;;:;;;;;;:;;;;;;;;;;;;+",
".;;;;;;;;;;;;;;;;;;;;;;;;;;;;;;;;.",
" *;;;;;;;;;;;;;;;;;;;;;;;;;;;;;;& ",
" X;;;;;;;;;;;;;;;;;;;;;;;;;;;;;;o ",
"  *;;;;;;;;;;;;;;;;;;;;;;;;;;;;&  ",
"  .;;;;;;;;;;;;;;;;;;;;;;;;;;;;.  ",
"   +;;;;;;;;;;;;;;;;;;;;;;;;;;+   ",
"    #;;;;;;;;;;;;;;;;;;;;;;;;#    ",
"     @;;;;;;;;;;;;;;;;;;;;;;$     ",
"      +;;;;;;;;;;;;;;;;;;;;+      ",
"       .*;;;;;;;;;;;;;;;;&.       ",
"         X*;;;;;;;;;;;;&X         ",
"           .+%=-;;-=%+.           "
};
