/* XPM */
static char *close_inactive[] = {
/* columns rows colors chars-per-pixel */
"34 26 17 1 ",
"  c gray17",
". c #2C2C2C",
"X c #2D2D2D",
"o c #313131",
"O c #323232",
"+ c gray20",
"@ c #343434",
"# c #353535",
"$ c gray21",
"% c #373737",
"& c gray22",
"* c #393939",
"= c gray39",
"- c #646464",
"; c #676767",
": c gray55",
"> c #A9A9A9",
/* pixels */
"            Xo##%%#@oX            ",
"          X#&&&&&&&&&&#X          ",
"         +&&&&&&&&&&&&&&+         ",
"       .#&&&&&&&&&&&&&&&&@.       ",
"       #&&&&&&&&&&&&&&&&&&@       ",
"      +&&&&&&&&&&&&&&&&&&&&+      ",
"     X&&&&&&&&&&&&&&&&&&&&&&X     ",
"     #&&&&&&&&&&&&&&&&&&&&&&@     ",
"    .&&&&&&&&*&&&&&&*&&&&&&&&X    ",
"    o&&&&&&&*:-&&&&-:*&&&&&&&o    ",
"    @&&&&&&&&=>;&&=>;&&&&&&&&@    ",
"    $&&&&&&&&&=>;=>;&&&&&&&&&#    ",
"    %&&&&&&&&&&->>-&&&&&&&&&&%    ",
"    %&&&&&&&&&&->>-&&&&&&&&&&%    ",
"    #&&&&&&&&&=>;=>;&&&&&&&&&#    ",
"    @&&&&&&&&=>;&&=>;&&&&&&&&@    ",
"    o&&&&&&&*:-&&&&-:*&&&&&&&o    ",
"    .&&&&&&&&*&&&&&&*&&&&&&&&.    ",
"     @&&&&&&&&&&&&&&&&&&&&&&@     ",
"     X&&&&&&&&&&&&&&&&&&&&&&X     ",
"      +&&&&&&&&&&&&&&&&&&&&O      ",
"       @&&&&&&&&&&&&&&&&&&@       ",
"       .@&&&&&&&&&&&&&&&&@.       ",
"         +&&&&&&&&&&&&&&O         ",
"          X@&&&&&&&&&&@X          ",
"            .o@#%%#@o.            "
};
