/* XPM */
static char *close_pressed[] = {
/* columns rows colors chars-per-pixel */
"34 26 25 1 ",
"  c #353535",
". c gray21",
"X c gray22",
"o c gray23",
"O c #3C3C3C",
"+ c gray24",
"@ c #484848",
"# c #494949",
"$ c #4C4C4C",
"% c gray30",
"& c #4E4E4E",
"* c #515151",
"= c gray32",
"- c #535353",
"; c #585858",
": c #5B5B5B",
"> c gray36",
", c gray37",
"< c #5F5F5F",
"1 c #909090",
"2 c gray57",
"3 c #939393",
"4 c gray74",
"5 c gray",
"6 c gray87",
/* pixels */
"            o#-;>>;-#o            ",
"          +-,,,,,,,,,,-+          ",
"        .&,,,,,,,,,,,,,,%.        ",
"       X-,,,,,,,,,,,,,,,,-X       ",
"      .-,,,,,,,,,,,,,,,,,,-.      ",
"      &,,,,,,,,,,,,,,,,,,,,$      ",
"     O,,,,,,,,,,,,,,,,,,,,,,+     ",
"     -,,,,,,,,,,,,,,,,,,,,,,-     ",
"    o,,,,,,,,<,,,,,,<,,,,,,,,o    ",
"    #,,,,,,,<52,,,,25<,,,,,,,#    ",
"    -,,,,,,,,163,,163,,,,,,,,-    ",
"    ;,,,,,,,,,163163,,,,,,,,,;    ",
"    :,,,,,,,,,,2662,,,,,,,,,,:    ",
"    :,,,,,,,,,,2662,,,,,,,,,,:    ",
"    ;,,,,,,,,,163163,,,,,,,,,;    ",
"    -,,,,,,,,163,,163,,,,,,,,-    ",
"    #,,,,,,,<42,,,,25<,,,,,,,@    ",
"    o,,,,,,,,<,,,,,,<,,,,,,,,o    ",
"     -,,,,,,,,,,,,,,,,,,,,,,-     ",
"     O,,,,,,,,,,,,,,,,,,,,,,+     ",
"      %,,,,,,,,,,,,,,,,,,,,$      ",
"       =,,,,,,,,,,,,,,,,,,-.      ",
"       X-,,,,,,,,,,,,,,,,-X       ",
"        .%,,,,,,,,,,,,,,$.        ",
"          +*,,,,,,,,,,-+          ",
"            o#-;::;-@o            "
};
