/* XPM */
static char *close_pressed[] = {
/* columns rows colors chars-per-pixel */
"34 34 26 1 ",
"  c gray18",
". c gray19",
"X c #313131",
"o c #323232",
"O c #343434",
"+ c #353535",
"@ c gray22",
"# c #393939",
"$ c gray23",
"% c #3C3C3C",
"& c gray24",
"* c gray25",
"= c #414141",
"- c gray26",
"; c gray27",
": c #464646",
"> c #494949",
", c gray29",
"< c #4B4B4B",
"1 c #4C4C4C",
"2 c gray54",
"3 c #8B8B8B",
"4 c gray56",
"5 c gray77",
"6 c #C5C5C5",
"7 c #EEEEEE",
/* pixels */
"           .#=:>,,>:=#.           ",
"         +-,<<<<<<<<<<,-O         ",
"       o-<<<<<<<<<<<<<<<<-o       ",
"      #,<<<<<<<<<<<<<<<<<<,@      ",
"     %<<<<<<<<<<<<<<<<<<<<<<&     ",
"    &<<<<<<<<<<<<<<<<<<<<<<<<%    ",
"   #<<<<<<<<<<<<<<<<<<<<<<<<<<@   ",
"  o,<<<<<<<<<<<<<<<<<<<<<<<<<<,X  ",
"  -<<<<<<<<<<<<<<<<<<<<<<<<<<<<-  ",
" +<<<<<<<<<<<<<<<<<<<<<<<<<<<<<<O ",
" -<<<<<<<<<<<<<<<<<<<<<<<<<<<<<<- ",
".,<<<<<<<<<<<<<<<<<<<<<<<<<<<<<<,.",
"#<<<<<<<<<<<<1<<<<<<1<<<<<<<<<<<<@",
"=<<<<<<<<<<<163<<<<361<<<<<<<<<<<*",
":<<<<<<<<<<<<274<<274<<<<<<<<<<<<;",
"><<<<<<<<<<<<<274274<<<<<<<<<<<<<>",
",<<<<<<<<<<<<<<3773<<<<<<<<<<<<<<,",
",<<<<<<<<<<<<<<3773<<<<<<<<<<<<<<,",
"><<<<<<<<<<<<<274274<<<<<<<<<<<<<>",
":<<<<<<<<<<<<274<<274<<<<<<<<<<<<;",
"*<<<<<<<<<<<153<<<<361<<<<<<<<<<<*",
"#<<<<<<<<<<<<1<<<<<<1<<<<<<<<<<<<@",
".,<<<<<<<<<<<<<<<<<<<<<<<<<<<<<<,.",
" -<<<<<<<<<<<<<<<<<<<<<<<<<<<<<<- ",
" +<<<<<<<<<<<<<<<<<<<<<<<<<<<<<<O ",
"  -<<<<<<<<<<<<<<<<<<<<<<<<<<<<-  ",
"  o,<<<<<<<<<<<<<<<<<<<<<<<<<<,X  ",
"   @<<<<<<<<<<<<<<<<<<<<<<<<<<@   ",
"    %<<<<<<<<<<<<<<<<<<<<<<<<%    ",
"     $<<<<<<<<<<<<<<<<<<<<<<&     ",
"      @,<<<<<<<<<<<<<<<<<<,@      ",
"       X-<<<<<<<<<<<<<<<<=X       ",
"         O-,<<<<<<<<<<,-+         ",
"           .@*:>,,>;*@.           "
};
