/* XPM */
static char *hide_prelight[] = {
/* columns rows colors chars-per-pixel */
"34 34 16 1 ",
"  c gray18",
". c gray19",
"X c #323232",
"o c gray20",
"O c #343434",
"+ c #353535",
"@ c gray21",
"# c #373737",
"$ c gray22",
"% c #3A3A3A",
"& c gray23",
"* c #3C3C3C",
"= c gray24",
"- c gray25",
"; c #414141",
": c gray94",
/* pixels */
"           .+%=-;;-=%+.           ",
"         o*;;;;;;;;;;;;*o         ",
"       .*;;;;;;;;;;;;;;;;*.       ",
"      O;;;;;;;;;;;;;;;;;;;;+      ",
"     #;;;;;;;;;;;;;;;;;;;;;;$     ",
"    $;;;;;;;;;;;;;;;;;;;;;;;;#    ",
"   O;;;;;;;;;;;;;;;;;;;;;;;;;;+   ",
"  .;;;;;;;;;;;;;;;;;;;;;;;;;;;;.  ",
"  *;;;;;;;;;;;;;;;;;;;;;;;;;;;;*  ",
" X;;;;;;;;;;;;;;;;;;;;;;;;;;;;;;o ",
" *;;;;;;;;;;;;;;;;;;;;;;;;;;;;;;* ",
".;;;;;;;;;;;;;;;;;;;;;;;;;;;;;;;;.",
"+;;;;;;;;;;;;;;;;;;;;;;;;;;;;;;;;+",
"%;;;;;;;;;;;;;;;;;;;;;;;;;;;;;;;;%",
"=;;;;;;;;;;;;;;;;;;;;;;;;;;;;;;;;=",
"-;;;;;;;;;;;;;;;;;;;;;;;;;;;;;;;;-",
";;;;;;;;;;;;;;;;;;;;;;;;;;;;;;;;;;",
";;;;;;;;;;;;;;;;;;;;;;;;;;;;;;;;;;",
"-;;;;;;;;;;;;;;;;;;;;;;;;;;;;;;;;-",
"=;;;;;;;;;;;;::::::::;;;;;;;;;;;;=",
"%;;;;;;;;;;;;;;;;;;;;;;;;;;;;;;;;%",
"+;;;;;;;;;;;;;;;;;;;;;;;;;;;;;;;;+",
".;;;;;;;;;;;;;;;;;;;;;;;;;;;;;;;;.",
" *;;;;;;;;;;;;;;;;;;;;;;;;;;;;;;& ",
" X;;;;;;;;;;;;;;;;;;;;;;;;;;;;;;o ",
"  *;;;;;;;;;;;;;;;;;;;;;;;;;;;;&  ",
"  .;;;;;;;;;;;;;;;;;;;;;;;;;;;;.  ",
"   +;;;;;;;;;;;;;;;;;;;;;;;;;;+   ",
"    #;;;;;;;;;;;;;;;;;;;;;;;;#    ",
"     @;;;;;;;;;;;;;;;;;;;;;;$     ",
"      +;;;;;;;;;;;;;;;;;;;;+      ",
"       .*;;;;;;;;;;;;;;;;&.       ",
"         X*;;;;;;;;;;;;&X         ",
"           .+%=-;;-=%+.           "
};
