/* XPM */
static char *hide_pressed[] = {
/* columns rows colors chars-per-pixel */
"34 26 19 1 ",
"  c #353535",
". c gray21",
"X c gray22",
"o c gray23",
"O c #3C3C3C",
"+ c gray24",
"@ c #484848",
"# c #494949",
"$ c #4C4C4C",
"% c gray30",
"& c #4E4E4E",
"* c #515151",
"= c gray32",
"- c #535353",
"; c #585858",
": c #5B5B5B",
"> c gray36",
", c gray37",
"< c gray88",
/* pixels */
"            o#-;>>;-#o            ",
"          +-,,,,,,,,,,-+          ",
"        .&,,,,,,,,,,,,,,%.        ",
"       X-,,,,,,,,,,,,,,,,-X       ",
"      .-,,,,,,,,,,,,,,,,,,-.      ",
"      &,,,,,,,,,,,,,,,,,,,,$      ",
"     O,,,,,,,,,,,,,,,,,,,,,,+     ",
"     -,,,,,,,,,,,,,,,,,,,,,,-     ",
"    o,,,,,,,,,,,,,,,,,,,,,,,,o    ",
"    #,,,,,,,,,,,,,,,,,,,,,,,,#    ",
"    -,,,,,,,,,,,,,,,,,,,,,,,,-    ",
"    ;,,,,,,,,,,,,,,,,,,,,,,,,;    ",
"    :,,,,,,,,,,,,,,,,,,,,,,,,:    ",
"    :,,,,,,,,,,,,,,,,,,,,,,,,:    ",
"    ;,,,,,,,,,,,,,,,,,,,,,,,,;    ",
"    -,,,,,,,,<<<<<<<<,,,,,,,,-    ",
"    #,,,,,,,,,,,,,,,,,,,,,,,,@    ",
"    o,,,,,,,,,,,,,,,,,,,,,,,,o    ",
"     -,,,,,,,,,,,,,,,,,,,,,,-     ",
"     O,,,,,,,,,,,,,,,,,,,,,,+     ",
"      %,,,,,,,,,,,,,,,,,,,,$      ",
"       =,,,,,,,,,,,,,,,,,,-.      ",
"       X-,,,,,,,,,,,,,,,,-X       ",
"        .%,,,,,,,,,,,,,,$.        ",
"          +*,,,,,,,,,,-+          ",
"            o#-;::;-@o            "
};
