/* XPM */
static char *maximize_prelight[] = {
/* columns rows colors chars-per-pixel */
"34 26 14 1 ",
"  c #353535",
". c #373737",
"X c #393939",
"o c gray23",
"O c #444444",
"+ c gray28",
"@ c #494949",
"# c gray29",
"$ c #4C4C4C",
"% c gray31",
"& c #515151",
"* c gray33",
"= c #555555",
"- c gray88",
/* pixels */
"            XO$&**&$OX            ",
"          o$==========$o          ",
"         @==============@         ",
"       .$================$.       ",
"       $==================$       ",
"      @====================+      ",
"     o======================o     ",
"     $======================$     ",
"    X========================X    ",
"    O========--------========O    ",
"    $========-======-========$    ",
"    &========-======-========&    ",
"    *========-======-========*    ",
"    *========-======-========*    ",
"    &========-======-========&    ",
"    $========-======-========$    ",
"    O========--------========O    ",
"    X========================X    ",
"     $======================$     ",
"     o======================o     ",
"      @====================+      ",
"       $==================$       ",
"       .$================$.       ",
"         @==============+         ",
"          o#==========$o          ",
"            XO$&**%$OX            "
};
