/* XPM */
static char *top_left_active[] = {
/* columns rows colors chars-per-pixel */
"8 38 3 1 ",
"  c None",
". c #353535",
"X c gray21",
/* pixels */
"     ...",
"   X....",
"  ......",
" X......",
" .......",
"........",
"........",
"X.......",
"........",
"........",
"........",
"........",
"........",
"........",
"........",
"........",
"........",
"........",
"........",
"........",
"........",
"........",
"........",
"........",
"........",
"........",
"........",
"........",
"........",
"........",
"........",
"........",
"........",
"........",
"........",
"........",
"........",
"........"
};
