/* XPM */
static char *top_right_inactive[] = {
/* columns rows colors chars-per-pixel */
"8 38 3 1 ",
"  c None",
". c gray17",
"X c #2C2C2C",
/* pixels */
"...     ",
"....X   ",
".....X  ",
"......X ",
"....... ",
"........",
".......X",
"........",
"........",
"........",
"........",
"........",
"........",
"........",
"........",
"........",
"........",
"........",
"........",
"........",
"........",
"........",
"........",
"........",
"........",
"........",
"........",
"........",
"........",
"........",
"........",
"........",
"........",
"........",
"........",
"........",
"........",
"........"
};
