/* XPM */
static char *close_prelight[] = {
/* columns rows colors chars-per-pixel */
"34 26 16 1 ",
"  c gray36",
". c gray37",
"X c #626262",
"o c #6A6A6A",
"O c gray42",
"+ c #6D6D6D",
"@ c gray45",
"# c gray46",
"$ c #797979",
"% c gray48",
"& c #7B7B7B",
"* c gray68",
"= c #AEAEAE",
"- c #B1B1B1",
"; c gainsboro",
": c #FDFDFD",
/* pixels */
"            XO@#$$#@OX            ",
"          X@%%%%%%%%%%@X          ",
"         +%%%%%%%%%%%%%%+         ",
"       .@%%%%%%%%%%%%%%%%@.       ",
"       @%%%%%%%%%%%%%%%%%%@       ",
"      +%%%%%%%%%%%%%%%%%%%%+      ",
"     X%%%%%%%%%%%%%%%%%%%%%%X     ",
"     @%%%%%%%%%%%%%%%%%%%%%%@     ",
"    X%%%%%%%%&%%%%%%&%%%%%%%%X    ",
"    O%%%%%%%&;=%%%%=;&%%%%%%%o    ",
"    @%%%%%%%%*:-%%*:-%%%%%%%%@    ",
"    #%%%%%%%%%*:-*:-%%%%%%%%%#    ",
"    $%%%%%%%%%%=::=%%%%%%%%%%$    ",
"    $%%%%%%%%%%=::=%%%%%%%%%%$    ",
"    #%%%%%%%%%*:-*:-%%%%%%%%%#    ",
"    @%%%%%%%%*:-%%*:-%%%%%%%%@    ",
"    O%%%%%%%&;=%%%%=;&%%%%%%%o    ",
"    X%%%%%%%%&%%%%%%&%%%%%%%%X    ",
"     @%%%%%%%%%%%%%%%%%%%%%%@     ",
"     X%%%%%%%%%%%%%%%%%%%%%%X     ",
"      +%%%%%%%%%%%%%%%%%%%%+      ",
"       @%%%%%%%%%%%%%%%%%%@       ",
"       .@%%%%%%%%%%%%%%%%@.       ",
"         +%%%%%%%%%%%%%%+         ",
"          X@%%%%%%%%%%@X          ",
"            Xo@#$$#@oX            "
};
