/* XPM */
static char *close_inactive[] = {
/* columns rows colors chars-per-pixel */
"30 30 6 1 ",
"  c #A4A4A4",
". c #A5A5A5",
"X c gray74",
"o c gray",
"O c LightGray",
"+ c gray89",
/* pixels */
"                              ",
"                              ",
"                              ",
"                              ",
"                              ",
"                              ",
"                              ",
"                              ",
"                              ",
"                              ",
"           .      .           ",
"          .OX    XO.          ",
"           X+o  X+o           ",
"            X+oX+o            ",
"             X++X             ",
"             X++X             ",
"            X+oX+o            ",
"           X+o  X+o           ",
"          .OX    XO.          ",
"           .      .           ",
"                              ",
"                              ",
"                              ",
"                              ",
"                              ",
"                              ",
"                              ",
"                              ",
"                              ",
"                              "
};
