/* XPM */
static char *close_pressed[] = {
/* columns rows colors chars-per-pixel */
"30 30 21 1 ",
"  c gray36",
". c #5D5D5D",
"X c gray38",
"o c #626262",
"O c gray39",
"+ c #646464",
"@ c #676767",
"# c #686868",
"$ c DimGray",
"% c gray42",
"& c #6C6C6C",
"* c #6F6F6F",
"= c #717171",
"- c #727272",
"; c #747474",
": c gray46",
"> c #A9A9A9",
", c #AAAAAA",
"< c gray68",
"1 c #DADADA",
"2 c #FDFDFD",
/* pixels */
"          o$*-;;-*$o          ",
"       .#-;;;;;;;;;;-@.       ",
"      +-;;;;;;;;;;;;;;-+      ",
"     #;;;;;;;;;;;;;;;;;;$     ",
"    &;;;;;;;;;;;;;;;;;;;;%    ",
"   $;;;;;;;;;;;;;;;;;;;;;;#   ",
"  +;;;;;;;;;;;;;;;;;;;;;;;;+  ",
" .-;;;;;;;;;;;;;;;;;;;;;;;;=. ",
" #;;;;;;;;;;;;;;;;;;;;;;;;;;@ ",
" -;;;;;;;;;;;;;;;;;;;;;;;;;;- ",
"o;;;;;;;;;;:;;;;;;:;;;;;;;;;;o",
"$;;;;;;;;;:1,;;;;,1:;;;;;;;;;$",
"*;;;;;;;;;;>2<;;>2<;;;;;;;;;;*",
"-;;;;;;;;;;;>2<>2<;;;;;;;;;;;-",
";;;;;;;;;;;;;,22,;;;;;;;;;;;;;",
";;;;;;;;;;;;;,22,;;;;;;;;;;;;;",
"-;;;;;;;;;;;>2<>2<;;;;;;;;;;;-",
"*;;;;;;;;;;>2<;;>2<;;;;;;;;;;*",
"$;;;;;;;;;:1,;;;;,1:;;;;;;;;;$",
"o;;;;;;;;;;:;;;;;;:;;;;;;;;;;X",
" -;;;;;;;;;;;;;;;;;;;;;;;;;;- ",
" @;;;;;;;;;;;;;;;;;;;;;;;;;;@ ",
" .=;;;;;;;;;;;;;;;;;;;;;;;;=. ",
"  +;;;;;;;;;;;;;;;;;;;;;;;;O  ",
"   #;;;;;;;;;;;;;;;;;;;;;;#   ",
"    %;;;;;;;;;;;;;;;;;;;;%    ",
"     #;;;;;;;;;;;;;;;;;;$     ",
"      +=;;;;;;;;;;;;;;=O      ",
"       .@-;;;;;;;;;;-@.       ",
"          o$*-;;-*$o          "
};
