/* XPM */
static char *close_inactive[] = {
/* columns rows colors chars-per-pixel */
"34 26 12 1 ",
"  c #A7A7A7",
". c gray66",
"X c #A9A9A9",
"o c #AAAAAA",
"O c gray67",
"+ c #ACACAC",
"@ c gray68",
"# c #AEAEAE",
"$ c #C3C3C3",
"% c gray77",
"& c gray84",
"* c #E4E4E4",
/* pixels */
"             XO++++OX             ",
"          .O@@@@@@@@@@O.          ",
"         O@@@@@@@@@@@@@@O         ",
"        O@@@@@@@@@@@@@@@@O        ",
"       O@@@@@@@@@@@@@@@@@@O       ",
"      O@@@@@@@@@@@@@@@@@@@@o      ",
"     .@@@@@@@@@@@@@@@@@@@@@@.     ",
"     O@@@@@@@@@@@@@@@@@@@@@@O     ",
"     @@@@@@@@#@@@@@@#@@@@@@@@     ",
"    X@@@@@@@#&$@@@@$&#@@@@@@@o    ",
"    O@@@@@@@@$*%@@$*%@@@@@@@@O    ",
"    +@@@@@@@@@$*%$*%@@@@@@@@@+    ",
"    +@@@@@@@@@@$**$@@@@@@@@@@+    ",
"    +@@@@@@@@@@$**$@@@@@@@@@@+    ",
"    +@@@@@@@@@$*%$*%@@@@@@@@@+    ",
"    O@@@@@@@@$*%@@$*%@@@@@@@@O    ",
"    X@@@@@@@#&$@@@@$&#@@@@@@@o    ",
"     @@@@@@@@#@@@@@@#@@@@@@@@     ",
"     O@@@@@@@@@@@@@@@@@@@@@@O     ",
"     .@@@@@@@@@@@@@@@@@@@@@@.     ",
"      O@@@@@@@@@@@@@@@@@@@@o      ",
"       O@@@@@@@@@@@@@@@@@@O       ",
"        O@@@@@@@@@@@@@@@@O        ",
"         O@@@@@@@@@@@@@@o         ",
"          .o@@@@@@@@@@O.          ",
"             oO+++OOo             "
};
