/* XPM */
static char *hide_pressed[] = {
/* columns rows colors chars-per-pixel */
"34 26 15 1 ",
"  c gray36",
". c #5D5D5D",
"X c gray37",
"o c #626262",
"O c gray39",
"+ c #646464",
"@ c #6D6D6D",
"# c #6F6F6F",
"$ c #727272",
"% c gray47",
"& c #797979",
"* c #7C7C7C",
"= c #808080",
"- c gray51",
"; c white",
/* pixels */
"            O#&*==*&#O            ",
"          +&----------&+          ",
"        .$--------------$.        ",
"       X&----------------&X       ",
"      .&------------------&.      ",
"      $--------------------$      ",
"     O----------------------+     ",
"     &----------------------&     ",
"    O------------------------O    ",
"    #------------------------@    ",
"    &------------------------&    ",
"    *------------------------*    ",
"    =------------------------=    ",
"    =------------------------=    ",
"    *------------------------*    ",
"    &--------;;;;;;;;--------&    ",
"    #------------------------@    ",
"    o------------------------O    ",
"     &----------------------&     ",
"     O----------------------O     ",
"      $--------------------$      ",
"       %------------------&.      ",
"       X&----------------&X       ",
"        .$--------------$.        ",
"          O%----------&O          ",
"            O@&*==*&@o            "
};
