/* XPM */
static char *maximize_pressed[] = {
/* columns rows colors chars-per-pixel */
"30 30 16 1 ",
"  c gray36",
". c #5D5D5D",
"X c gray38",
"o c #626262",
"O c gray39",
"+ c #646464",
"@ c #676767",
"# c #686868",
"$ c DimGray",
"% c gray42",
"& c #6C6C6C",
"* c #6F6F6F",
"= c #717171",
"- c #727272",
"; c #747474",
": c white",
/* pixels */
"          o$*-;;-*$o          ",
"       .#-;;;;;;;;;;-@.       ",
"      +-;;;;;;;;;;;;;;-+      ",
"     #;;;;;;;;;;;;;;;;;;$     ",
"    &;;;;;;;;;;;;;;;;;;;;%    ",
"   $;;;;;;;;;;;;;;;;;;;;;;#   ",
"  +;;;;;;;;;;;;;;;;;;;;;;;;+  ",
" .-;;;;;;;;;;;;;;;;;;;;;;;;=. ",
" #;;;;;;;;;;;;;;;;;;;;;;;;;;@ ",
" -;;;;;;;;;;;;;;;;;;;;;;;;;;- ",
"o;;;;;;;;;;;;;;;;;;;;;;;;;;;;o",
"$;;;;;;;;;;::::::::;;;;;;;;;;$",
"*;;;;;;;;;;:;;;;;;:;;;;;;;;;;*",
"-;;;;;;;;;;:;;;;;;:;;;;;;;;;;-",
";;;;;;;;;;;:;;;;;;:;;;;;;;;;;;",
";;;;;;;;;;;:;;;;;;:;;;;;;;;;;;",
"-;;;;;;;;;;:;;;;;;:;;;;;;;;;;-",
"*;;;;;;;;;;:;;;;;;:;;;;;;;;;;*",
"$;;;;;;;;;;::::::::;;;;;;;;;;$",
"o;;;;;;;;;;;;;;;;;;;;;;;;;;;;X",
" -;;;;;;;;;;;;;;;;;;;;;;;;;;- ",
" @;;;;;;;;;;;;;;;;;;;;;;;;;;@ ",
" .=;;;;;;;;;;;;;;;;;;;;;;;;=. ",
"  +;;;;;;;;;;;;;;;;;;;;;;;;O  ",
"   #;;;;;;;;;;;;;;;;;;;;;;#   ",
"    %;;;;;;;;;;;;;;;;;;;;%    ",
"     #;;;;;;;;;;;;;;;;;;$     ",
"      +=;;;;;;;;;;;;;;=O      ",
"       .@-;;;;;;;;;;-@.       ",
"          o$*-;;-*$o          "
};
